<?xml version="1.0" encoding="utf-8"?>
<!-- Generator: Adobe Illustrator 16.0.0, SVG Export Plug-In . SVG Version: 6.00 Build 0)  -->
<!DOCTYPE svg PUBLIC "-//W3C//DTD SVG 1.1//EN" "http://www.w3.org/Graphics/SVG/1.1/DTD/svg11.dtd">
<svg version="1.1" id="Layer_1" xmlns="http://www.w3.org/2000/svg" xmlns:xlink="http://www.w3.org/1999/xlink" x="0px" y="0px"
	 width="864px" height="864px" viewBox="0 0 864 864" enable-background="new 0 0 864 864" xml:space="preserve">
<path fill-rule="evenodd" clip-rule="evenodd" d="M413.123,670.603c-2.048,24.017-2.811,48.231-6.487,71.995
	c-4.022,26.005-16.029,31.01-40.281,20.156c-34.022-15.227-57.958-41.087-76.561-72.397
	c-31.674-53.314-49.364-111.609-61.552-172.036c-11.423-56.631-11.392-114.083-14.833-171.326
	c-1.785-29.682-4.746-59.152-16.398-87.223c-9.855-23.744-11.893-48.994-7.682-74.303c9.579-57.55,54.19-94.359,114.501-97.783
	c22.482-1.276,45.528-4.669,66.835-11.633c27.353-8.939,54.078-9.92,81.67-4.816c28.881,5.343,57.103,6.389,85.873-3.245
	c31.073-10.406,63.689-12.286,94.902-0.798c14.273,5.253,27.793,14.698,39.242,24.938c14.089,12.599,18.143,30.576,15.524,49.189
	c-3.668,26.076,0.998,50.354,10.442,74.854c15.255,39.576,11.939,77.668-15.775,111.657
	c-26.602,32.625-33.503,71.499-36.345,111.869c-3.291,46.77-5.413,93.707-11.06,140.207
	c-7.398,60.925-34.263,112.243-85.507,148.129c-10.674,7.476-24.434,12.034-37.408,14.317c-13.146,2.314-22.076-7.08-21.988-20.625
	c0.06-9.307,2.028-18.716,4.07-27.872c7.377-33.076,16.32-65.85,22.458-99.146c6.912-37.504-7.204-68.568-34.175-94.544
	c-7.54-7.262-11.867-3.231-16.93,2.936c-37.708,45.936-57.645,97.881-54.06,157.926c0.187,3.14,0.023,6.3,0.023,9.45
	C412.125,670.52,412.623,670.561,413.123,670.603z"/>
<path fill-rule="evenodd" clip-rule="evenodd" fill="#FFFFFF" d="M609.625,365.375c12.521-15.479,24.35-30.102,36.178-44.725
	c1.135-2.042,1.135-2.042-2.17-2.943c-3.448,1.958-7.845,3.142-10.179,6.007c-10.578,12.986-20.501,26.504-30.813,39.709
	c-4.569,5.851-9.506,11.414-14.276,17.108c-1.243-0.745-2.488-1.49-3.731-2.233c3.322-8.101,7.023-16.073,9.812-24.352
	c1.501-4.456,4.434-13.449,2.08-14.183c-3.118-1.883-10.714,4.531-12.45,8.417c-5.798,12.963-10.57,26.498-14.362,40.193
	c-1.602,5.791-1.244,13.235,9.484,11.333c2.492-0.441,5.813,3.801,10.657,7.24c2.476-3.563,5.448-8.774,9.347-13.164
	c3.294-3.707,7.659-6.46,11.552-9.635c5.494,2.983,7.753,7.838,8.364,12.212c3.274,23.466,7.621,47.079,7.634,70.642
	c0.025,49.779-3.947,99.461-20.04,147.066c-10.834,32.049-26.64,61.738-50.396,86.363c-5.957,6.174-13.197,11.633-20.81,15.553
	c-9.427,4.854-17.821,1.408-18.98-8.961c-1.481-13.246-0.853-27.121,1.367-40.305c4.229-25.115,11.631-49.74,15.137-74.926
	c4.215-30.271-4.674-58.104-21.508-83.57c-5.369-8.125-9.97-16.873-13.89-25.789c-1.834-4.174-1.966-9.494-1.545-14.172
	c0.802-8.875-1.387-11.115-9.673-7.535c-5.088,2.199-9.972,5.162-14.43,8.479c-21.523,16.01-39.803,35.15-55.079,57.252
	c-13.153,19.029-19.905,39.973-20.012,63.025c-0.13,28.006,1.008,56.066-0.389,84.002c-1.023,20.453-3.395,41.23-8.554,60.979
	c-5.609,21.467-19.549,24.549-35.758,9.02c-10.001-9.582-18.862-20.742-26.494-32.34c-25.966-39.461-43.721-82.771-57.813-127.697
	c-20.569-65.576-37.4-131.951-42.39-200.777c-0.778-10.726,0.116-21.648,1.108-32.4c0.591-6.395,3.903-11.207,11.844-10.127
	c10.025,1.364,10.833-5.08,8.181-11.734c-5.168-12.963-10.944-25.734-17.263-38.182c-17.484-34.44-24.656-70.407-17.896-108.809
	c11.742-66.692,70.912-100.61,134.452-77.284c10.838,3.978,22.286,6.298,33.45,9.385c0.76-1.349,1.521-2.698,2.28-4.047
	c-3.771-3.578-7.586-7.11-11.304-10.744c-6.647-6.494-6.163-11.223,2.634-13.626c21.535-5.883,43.503-5.996,65.339-1.659
	c3.425,0.681,6.225,4.509,9.312,6.881c-3.15,2.447-6.183,5.072-9.497,7.269c-1.862,1.235-4.192,1.766-9.033,3.701
	c16.854,4.798,31.081,2.966,44.623-0.213c19.343-4.541,38.922-9.491,57.048-17.375c17.405-7.57,34.87-11.088,53.051-8.68
	c19.984,2.646,39.882,6.772,59.399,11.855c16.197,4.219,26.493,15.817,28.786,32.7c3.199,23.556,5.7,47.215,8.053,70.876
	c2.181,21.939,4.131,43.915,5.427,65.918c0.442,7.507,0.089,15.703-2.473,22.631c-11.443,30.942-29.385,57.951-52.854,81.117
	C625.618,364.606,620.662,370.71,609.625,365.375z M602.982,444.402c-1.963-1.6-3.629-1.361-5.808,0.508
	c-1.064,7.572-2.522,15.111-3.128,22.721c-5.096,64-15.956,126.143-53.784,180.527c-5.544,7.971-8.988,18.303-10.277,27.961
	c-0.662,4.963,4.371,13.156,9.064,15.598c3.886,2.023,13.067-0.428,16.36-4.088c8.316-9.238,15.794-19.67,21.542-30.699
	c19.764-37.926,30.057-78.889,36.229-120.961c3.534-24.088,3.157-48.17-2.627-71.902
	C608.905,457.299,605.554,450.945,602.982,444.402z M273.808,409.175c-1.547-0.217-3.095-0.434-4.642-0.65
	c-1.441,2.244-3.462,4.305-4.235,6.759c-7.759,24.648-10.417,49.918-8.306,75.643c0.243,2.963,2.012,5.861,3.348,8.658
	c3.565,7.461,8.743,14.488,10.671,22.33c6.926,28.158,12.384,56.676,19.128,84.883c7.957,33.273,20.359,64.793,41.667,91.975
	c5.476,6.984,12.66,13.191,20.241,17.82c8.908,5.438,19.498,1.246,23.026-7.295c2.962-7.168-1.089-16.803-8.259-19.127
	c-9.207-2.986-6.198,5.873-8.827,9.281c-0.405,0.525-1.08,0.84-2.674,2.037c-3.16-3.355-6.999-6.43-9.553-10.342
	c-6.302-9.65-12.518-19.422-17.875-29.613c-20.053-38.156-34.534-77.715-33.971-121.92c0.197-15.486-3.821-31.133-6.914-46.506
	c-1.117-5.551-2.546-12.957-11.856-11.967c-1.057,0.111-3.864-4.678-3.75-7.096c0.509-10.809,2.171-21.562,2.669-32.369
	C274.196,430.862,273.808,420.009,273.808,409.175z M414.75,144.205c-6.991,1.221-10.827,2.277-14.707,2.481
	c-6.635,0.349-13.353-0.355-19.937,0.333c-7.982,0.835-11.667,5.906-10.437,13.936c1.191,7.77,6.763,8.059,12.721,6.59
	c5.753-1.417,11.631-2.783,17.015-5.163c23.995-10.605,47.585-22.156,71.775-32.281c57.194-23.937,114.791-37.391,173.343-3.506
	c3.84,2.221,8.946,2.252,13.464,3.302c0.711-0.992,1.423-1.983,2.134-2.975c-3.113-4.187-5.495-9.386-9.525-12.31
	c-5.262-3.816-11.569-6.882-17.879-8.457c-52.595-13.121-104.603-12.74-155.352,8.435c-20.737,8.652-41.834,13.587-64.46,9.379
	c-5.918-1.1-12.108-0.745-21.301-1.221C400.23,130.746,406.361,136.429,414.75,144.205z"/>
</svg>
